<svg width="18" height="18" viewBox="0 0 18 18" fill="none" xmlns="http://www.w3.org/2000/svg">
<path fill-rule="evenodd" clip-rule="evenodd" d="M16 1H2C1.44772 1 1 1.44772 1 2V16C1 16.5523 1.44772 17 2 17H16C16.5523 17 17 16.5523 17 16V2C17 1.44772 16.5523 1 16 1ZM2 0C0.895431 0 0 0.89543 0 2V16C0 17.1046 0.89543 18 2 18H16C17.1046 18 18 17.1046 18 16V2C18 0.895431 17.1046 0 16 0H2Z" fill="#3A3A3A"/>
<path fill-rule="evenodd" clip-rule="evenodd" d="M1 9C1 13.4183 4.58172 17 9 17C13.4183 17 17 13.4183 17 9C17 4.58172 13.4183 1 9 1C4.58172 1 1 4.58172 1 9ZM9 0C4.02944 0 0 4.02944 0 9C0 13.9706 4.02944 18 9 18C13.9706 18 18 13.9706 18 9C18 4.02944 13.9706 0 9 0Z" fill="#3A3A3A"/>
<path fill-rule="evenodd" clip-rule="evenodd" d="M0.5 9C0.5 8.72386 0.723858 8.5 1 8.5L17 8.5C17.2761 8.5 17.5 8.72386 17.5 9C17.5 9.27614 17.2761 9.5 17 9.5L1 9.5C0.723858 9.5 0.5 9.27614 0.5 9Z" fill="#3A3A3A"/>
</svg>
