<svg width="12" height="22" viewBox="0 0 12 22" fill="none" xmlns="http://www.w3.org/2000/svg">
<path fill-rule="evenodd" clip-rule="evenodd" d="M6.42063 0.229621L6.00004 0.5L5.57944 0.229635C5.67144 0.086518 5.8299 2.71207e-06 6.00003 0C6.17017 -2.68215e-06 6.32863 0.0865076 6.42063 0.229621ZM9.41671 16.4452C9.49048 16.3622 9.58905 16.2472 9.70348 16.1037C9.95051 15.7939 10.2741 15.3476 10.5819 14.7995C11.1925 13.7118 11.7693 12.171 11.4935 10.4819C11.3573 9.64789 10.9588 8.58622 10.4633 7.49199C9.96329 6.38775 9.34672 5.21242 8.74939 4.13958C8.15151 3.06576 7.56982 2.08909 7.13778 1.38114C6.92167 1.02701 6.74278 0.739749 6.61774 0.540752C6.55522 0.441245 6.50615 0.363784 6.47261 0.311043L6.4342 0.250798L6.42063 0.229621C6.42063 0.229621 6.42063 0.229621 6.00004 0.5C5.57944 0.229635 5.57944 0.229635 5.57944 0.229635L5.56588 0.250811L5.52747 0.311056C5.49393 0.363797 5.44486 0.441258 5.38234 0.540764C5.25732 0.739761 5.07844 1.02702 4.86234 1.38115C4.43032 2.0891 3.84866 3.06577 3.2508 4.13959C2.65349 5.21243 2.03693 6.38775 1.53688 7.49198C1.04137 8.58622 0.642834 9.64786 0.506581 10.4819C0.230634 12.171 0.807462 13.7118 1.4181 14.7995C1.72587 15.3476 2.04951 15.7939 2.29657 16.1037C2.41101 16.2472 2.50959 16.3622 2.58337 16.4452V21.5C2.58337 21.7761 2.80723 22 3.08337 22C3.35951 22 3.58337 21.7761 3.58337 21.5V16.75H5.50004V21.5C5.50004 21.7761 5.7239 22 6.00004 22C6.27618 22 6.50004 21.7761 6.50004 21.5V16.75H8.41671V21.5C8.41671 21.7761 8.64056 22 8.91671 22C9.19285 22 9.41671 21.7761 9.41671 21.5V16.4452ZM8.69649 15.75C8.75645 15.6816 8.83332 15.591 8.9216 15.4803C9.14331 15.2022 9.43429 14.8008 9.70988 14.3099C10.266 13.3194 10.7308 12.0165 10.5066 10.6431C10.3927 9.94586 10.0412 8.98409 9.55237 7.9045C9.06803 6.83491 8.46586 5.68602 7.87569 4.62604C7.3804 3.73647 6.89574 2.91341 6.50004 2.25776V9.6875C6.50004 9.96364 6.27618 10.1875 6.00004 10.1875C5.7239 10.1875 5.50004 9.96364 5.50004 9.6875V2.25785C5.10437 2.91349 4.61976 3.73651 4.12451 4.62604C3.53436 5.68601 2.93219 6.83491 2.44783 7.9045C1.95895 8.9841 1.6074 9.94589 1.4935 10.6431C1.26913 12.0165 1.73397 13.3194 2.29007 14.3099C2.56567 14.8008 2.85668 15.2022 3.07842 15.4803C3.16671 15.591 3.2436 15.6816 3.30357 15.75H8.69649Z" fill="#3A3A3A"/>
<path d="M7.4359 10C7.4359 10.8284 6.76433 11.5 5.9359 11.5C5.10747 11.5 4.4359 10.8284 4.4359 10C4.4359 9.17157 5.10747 8.5 5.9359 8.5C6.76433 8.5 7.4359 9.17157 7.4359 10Z" fill="#3A3A3A"/>
</svg>
