<svg width="16" height="20" viewBox="0 0 16 20" fill="none" xmlns="http://www.w3.org/2000/svg">
<path fill-rule="evenodd" clip-rule="evenodd" d="M4.33778 2.5H11.6619C11.4626 2.28696 11.2134 2.10861 10.8986 1.96296C10.266 1.67023 9.34663 1.5 7.99982 1.5C6.65301 1.5 5.73362 1.67023 5.10101 1.96296C4.78626 2.10861 4.537 2.28696 4.33778 2.5ZM4.68106 1.05541C5.50238 0.675356 6.58785 0.5 7.99982 0.5C9.41179 0.5 10.4973 0.675356 11.3186 1.05541C12.1616 1.44549 12.7004 2.03956 13.0249 2.80479C13.0904 2.95921 13.0741 3.13618 12.9815 3.27604C12.8889 3.41589 12.7323 3.5 12.5646 3.5H7.99982H3.43505C3.26732 3.5 3.11076 3.41589 3.01816 3.27604C2.92556 3.13618 2.90925 2.95921 2.97473 2.80479C3.29925 2.03956 3.83808 1.44549 4.68106 1.05541ZM0.5 4.5C0.5 4.22386 0.723858 4 1 4H15C15.2761 4 15.5 4.22386 15.5 4.5C15.5 4.77614 15.2761 5 15 5H13.488V19C13.488 19.2761 13.2642 19.5 12.988 19.5H3.01162C2.73548 19.5 2.51162 19.2761 2.51162 19V5H1C0.723858 5 0.5 4.77614 0.5 4.5ZM3.51162 5V18.5H7.49982V5H3.51162ZM8.49982 5V18.5H12.488V5H8.49982Z" fill="#3A3A3A"/>
</svg>
